# xmcd
# 
# Track frame offsets:
#     150
#     13196
#     30151
#     48710
# 
# Disc length: 865
# 
# Revision: 0
# Processed by: cddbd v1.5.2PL0 Copyright (c) Steve Scherf et al.
# Submitted via: BonkEnc v1.0.8
# 
DISCID=28035f04
DTITLE=Elementos - Abrir Los Ojos
DYEAR=2000
DGENRE=Rock/Pop
TTITLE0=Abrir Los Ojos
TTITLE1=Nunca Vuelve
TTITLE2=Nunca Lo Sabrás
TTITLE3=Hora De Escapar
EXTD=
EXTT0=
EXTT1=
EXTT2=
EXTT3=
PLAYORDER=
